<?xml version="1.0" encoding="UTF-8"?>
<svg id="Layer_2" data-name="Layer 2" xmlns="http://www.w3.org/2000/svg" viewBox="0 0 142.66 142.13">
  <g id="Layer_2-2" data-name="Layer 2">
    <g>
      <path d="m74.39,46.33v1.04s-5.07,18.13-12.14,25.63c0,0,11.64,11.88,12.14,21.46v-1.04c.5-9.59,12.14-21.46,12.14-21.46-7.06-7.5-12.14-25.63-12.14-25.63Z"/>
      <path d="m142.64,70.57C141.76,39.11,115.9-2.32,71.33.1c0,0-18.57-1.42-41.57,12.05C29.76,12.15.25,35.3,0,76.67c-.24,41.37,44.76,66.39,77.76,65.43s65.77-40.06,64.88-71.53Zm-54.88,62.87c-43,6.74-52-25.03-52-25.03,0,7.7,7.5,17.81,7.5,17.81C.26,100.23,38.26,29.96,38.26,29.96c-17.5,19.73-19.5,33.21-23.5,41.87s-6,6.91-6,6.91c0,0-7-13.65,0-24.24s7,2.89,7,2.89C34.76-2.28,77.76,7.34,77.76,7.34c68,20.21,34,93.37,34,93.37,8-6.74,12-25.99,12-25.99,0,0,7,51.98-36,58.72Z"/>
    </g>
  </g>
</svg>