<?xml version="1.0" encoding="UTF-8"?><svg id="Layer_2" data-name="Layer 2" xmlns="http://www.w3.org/2000/svg" viewBox="0 0 426.39 172.12"><g id="Layer_2-2" data-name="Layer 2"><g><path d="m74.39,49.13v1.08s-5.07,18.83-12.14,26.63c0,0,11.64,12.34,12.14,22.3v-1.08c.5-9.96,12.14-22.3,12.14-22.3-7.06-7.79-12.14-26.63-12.14-26.63Z"/><path d="m201.99,170.75c4.39-.07,8.79-.07,13.17-.24,9.74-.38,41.59-7.15,42.58-7.48,8.7-2.94,17.16-6.46,25.37-10.58,7.24-3.64,14.26-7.67,20.73-12.56,2.62-1.98,21.2-19.41,27.47-26.47,5.06-5.7,9.98-11.53,14.93-17.34,3.83-4.49,8.19-9.46,12.01-13.96.61-.72-6.81-8.1-10.25-11.07-2.06-1.78-15.69-23.15-15.72-23.57-.45.71-9.74,15.07-14.45,21.49-5.25,7.14-10.43,14.33-15.86,21.32-3.52,4.54-7.43,8.77-11.18,13.13-2.81,3.26-5.68,6.48-8.48,9.74-7.2,8.38-15.15,16.01-23.88,22.75-4.71,3.64-9.85,6.71-14.83,9.99-2.62,1.72-14.41,7.76-17.65,9.1-5.83,2.41-11.73,4.64-17.8,6.4-6.82,1.98-12.8,3.12-19.89,3.72-8.37.7-23.79-.41-32-2-5.48-1.06-25.88-6.75-26-7,3.98.59,30,8,53,6,5.6-.49,23-3,35.71-10.86,5.23-2.59,9.75-6.15,14.15-9.94,8.17-7.02,14.55-15.48,20.17-24.57,3.31-5.36,4.84-11.34,5.75-17.5.92-6.2,1.82-12.41,2.69-18.62.25-1.79,1.83-8.55,1.93-8.54.03.26-.52,9.24-.51,13.48,0,3.01-.33,6.02-.42,9.03-.08,2.35.22,4.67,1.11,6.88.97,2.41,1.8,2.64,3.91,1.11,1.92-1.4,3.04-3.39,3.85-5.53,3.09-8.12,3.54-16.36.3-24.49-1.31-3.28-3.27-6.34-5.24-9.3-2.94-4.42-5.52-9.01-7.89-13.75-1.98-3.95-2.49-7.38-6.13-14.79-.58-.9-2.56-2.27-3.37-1.59-5,2-4.92,18.02-5,18,0-.24,0-16.18,2.61-22.31.38-.9.73-1.81,1.05-2.74,1.66-4.79,4.65-8.64,7.35-12.96,2.7-4.31,9.61-12.12,9.99-12.14-.83,1.44-1.72,2.84-2.47,4.31-2.7,5.28-5.23,10.6-4.77,16.8.26,3.45,3.71,16.51,4.46,19.74,1.15,4.96,7.86,14.6,7.86,14.6,0,0-2.07-1.75-2.93-1.31-2,1-.52,5.66,2,9,2.35,3.11,7.04,5.48,8,5,2-1-1.12-5.97-.14-5,3.55,3.5,9,7,14,10,4-3,6.36-5.02,8.16-6.44,3.09-2.42,17.09-18.37,21.33-23.56,1.74-2.13,3.31-4.46,4.52-6.92,1.49-3.03,4.98-12.08-.02-16.08-2.91-2.33-6.02-.29-9,2-1.65,1.27-6.77,5.97-6.85,5.9.86-1.11,1.65-2.28,2.6-3.31,4.42-4.75,9.36-8.88,14.79-12.44,5.95-3.9,8.08-6.04,14.47-9.15,2.12-1.03,5.75-2.28,8-3,2.58-.82,5-1,8-1,6,0,14.64-.29,15,0-.3.1-9.72.96-13.11,3.73-2.21,1.8-4.41,3.62-5.91,6.15-3.14,5.3-5,11.03-5.78,17.1-.49,3.79.36,7.49,1.44,11.09,1.66,5.51,4.55,10.44,7.95,15.02,3.09,4.16,6.49,8.09,9.78,12.09.24.29.49.56.76.82,1.9,1.84,2.02,2.24,2.71,1.07,1.65-2.81,3.28-5.63,4.98-8.42,2.5-4.09,5.02-8.16,7.57-12.22,3.65-5.81,7.24-11.66,11.06-17.35,1.82-2.72,4.14-5.1,6.2-7.66,3.87-4.81,5.5-6.42,12.5-10.42,6.76-3.47,14-5,14-5,0,0-7,3-9.09,4.92-3.67,2.42-3.91,4.08-3.91,6.08-.05,2.06,1.31,6.01,2,5,.02.56-4-1-17,19-10,16-16.94,30.86-19.59,35.25-1.02,1.69-.82,3.21.34,4.78,3.02,4.08,5.94,8.23,8.95,12.32,1.95,2.65,4.06,5.18,5.99,7.85,2.58,3.56,5.04,7.21,7.59,10.79,1.53,2.15,2.77,4.52,4.96,6.15,1.36,1.02,2.86,1.5,4.56,1.45,2.07-.59,2.13-3.26,2.09-4.33-.06-1.77-.25-3.56-.62-5.3-.66-3.05-4.61-8.86-4.75-9.32.75.73,1.51,1.45,2.24,2.19,5.94,6.05,9.41,13.23,9.76,21.77.05,1.22-.12,2.45-.26,3.67-.36,3.16-7.64,18.27-13.4,19.71-4,1-8,1-11,1-5.12,0-17.56-.23-18,0,.46-1.2,25-1,22-18-1-6-1.59-6.24-4-10-.96-1.49-2.42-3.21-4-4-2-1-3.52-.31-4,1-.61,1.67.4,3.35,1,5,.65,1.79,4.08,7.63,4,8-.82-1.32-3.23-3.65-4-5-1.93-3.35-4-5-8-14s-9.28-14.42-11.85-17.69c-.83,1.02-1.54,1.81-2.17,2.67-1.74,2.35-11.07,13.17-14.05,16.18-1.81,1.82-3.62,3.64-5.5,5.39-4.35,4.06-8.51,8.34-12.89,12.37-4.23,3.9-8.51,7.75-12.86,11.51-5.21,4.51-11.02,8.16-17.13,11.31-5.19,2.68-10.38,5.4-15.76,7.67-7.49,3.17-15.24,5.64-23.27,7.07-4.87.87-9.74,1.8-14.66,2.34-8.53.93-17.09,1.26-25.68,1.15-7.07-.09-22.46-1.26-22.45-1.35Z"/><path d="m142.64,74.32C141.76,41.63,115.9-1.41,71.33,1.11c0,0-18.57-1.48-41.57,12.52C29.76,13.63.25,37.68,0,80.65c-.24,42.97,44.76,68.97,77.76,67.97s65.77-41.62,64.88-74.31Zm-54.88,65.31c-43,7-52-26-52-26,0,8,7.5,18.5,7.5,18.5C.26,105.13,38.26,32.13,38.26,32.13c-17.5,20.5-19.5,34.5-23.5,43.5s-6,7.18-6,7.18c0,0-7-14.18,0-25.18s7,3,7,3C34.76-1.37,77.76,8.63,77.76,8.63c68,21,34,97,34,97,8-7,12-27,12-27,0,0,7,54-36,61Z"/><path d="m127.26,149.13l8-4c7-4,8.66-6.57,12-10,2.27-2.34,10.16-6.54,11-6-4,4-6.37,8.69-6,12,.19,1.68,2.02,1.11,3.51.57,4.19-1.5,7.51-4.16,9.22-8.72,1.26-3.35,1.74-6.83,1.69-10.47-.17-11.74-.18-23.49-.28-35.24-.18-19.44-.38-38.88-.58-58.32-.02-2.31-.77-4.42-1.79-6.43-3.82-7.47-9.74-12.48-16.56-16.45-2.52-1.47-5.31-1.88-8.06-2.35-2.31-.39-4.63-.69-6.96-.9-1.14-.1-2.28-.24-3.42-.37,0-.1-.02-.19-.03-.29.67-.08,1.34-.23,2.01-.24,5.55-.11,11.09-.19,16.64-.28,5.03-.09,10.06-.03,15.07-.39s10.54-.24,15.76.43c2.38.31,4.87.75,7,1.82,2.15,1.08,4.14,2.8,5.82,4.64,1.85,2.03,3.37,4.46,4.85,6.84,1.65,2.66,3.18,5.43,4.62,8.23,1.3,2.55,2.41,5.21,3.61,7.82.21.45.42.9.69,1.5.14-.23,4.43-8.75,7.21-13.42,2-3,6.88-9.33,7.21-9.41-.18.36-5.21,5.41-5.92,16.47-.33,5.24-.74,10.5-.61,15.73.22,8.94,2.19,17.51,5.57,25.72,2.35,5.69,4.52,11.48,6.67,17.26,1.17,3.14,5.98,17.33,6.8,19.83.85-2.03,10.27-22.6,12.97-66.18-.7,29.58-2.53,40.66-3.82,49.87-.79,5.61-2.51,10.94-3.99,16.36-1.93,7.09-2.73,9.92-5.89,16.35-1.77,3.6-4.7,8.72-7,12-3.18,4.53-6.64,7.87-11,11-2.48,1.79-7.05,4.98-8,5,.54-.29,7-4,9-13,2-8,.18-12.72-2-20-.79-2.65-2.11-7.17-2.9-9.82-1.48-4.96-3.13-9.87-4.95-14.69-2.83-7.5-5.76-14.95-8.84-22.33-2.6-6.21-5.51-12.27-8.24-18.42-1.14-2.56-2.22-5.16-3.25-7.78-1.87-4.77-4.51-9.05-7.23-13.28-1.42-2.21-4.69-7-5.06-7.38-.06.75-.12,22.19-.04,32.37.09,12.66.22,25.31.39,37.97.14,10.21.23,20.43.68,30.63.12,2.81.58,5.99,1.45,8.74,1.18,3.69,2.89,7.23,6,9,3.41,1.95,5.55,3.15,9,5,.97.52,4.98,2.58,6,3-.03.05-9.08-1.83-13-2-4.72-.2-8.18-.25-12.7,1.2-4.74,1.52-18.3,6.8-42.3.8"/></g></g></svg>